<svg xmlns="http://www.w3.org/2000/svg" version="1.0" viewBox="0 0 900 903">
  <path d="M439.1 15.6c-4 2-6.1 3.9-8.3 7.6-3.6 5.8-5.4 6.7-17.3 7.9-10.4 1.1-18.9 2.5-43.5 7.5-23.3 4.7-62.4 15.7-65.5 18.5-.5.5-1.5.9-2.2.9-.7 0-4.1 1.3-7.5 2.8-3.5 1.6-12.1 5.5-19.3 8.7-12.8 5.7-30.7 14.7-33.4 16.8-1.6 1.3-3.4 2.4-9.2 5.6-6.8 3.7-28.7 18.5-35.4 23.8-3.3 2.7-8.5 6.7-11.5 9-3.1 2.2-10.3 8.3-16 13.4-5.8 5.2-12 10.6-13.8 12.1l-3.3 2.7-5-1.9c-10.4-4.1-22.2-.9-28.1 7.5-5.1 7.5-5.9 18.6-1.8 26.3 2.3 4.2 1.7 6.4-3.5 13.2-7.8 10.3-13.3 18.7-24.7 37.6-12.8 21.2-18.9 32.7-24.3 45.9-2 4.9-4.2 10.3-4.9 12-.8 1.6-2.2 5.2-3.1 8-1 2.7-2.2 5.4-2.6 6-1.5 2-10.1 29.4-13.4 42.5-5.6 22.5-8.5 36.8-11 55-1.8 13.4-3.5 23.8-4.1 26.2-.3 1-2.4 2.6-4.7 3.7C14.1 438.3 8 447.4 8 455.3c0 7.7 7 17.1 14.7 19.7 3.9 1.4 5.2 4.5 6.4 14.9 3 28.3 11.8 70.6 19.4 93.5 3.4 10.4 10.8 30.6 12.5 34.1.5 1.1 2.6 6.3 4.6 11.5 3.7 9.6 13.9 30.4 19.3 39.5 1.7 2.7 4 6.8 5.2 9 4 7.3 14.1 22.9 22.2 33.9l7.9 11-2.2 5.3c-1.8 4.3-2.1 6.8-1.8 12.7.4 8.6 3 13.4 9.8 18.1 5.4 3.8 15.1 4.6 22.9 2l5.1-1.7 3.3 2.8c1.7 1.5 7.4 6.6 12.5 11.5 5.1 4.8 11.2 10 13.5 11.6 2.3 1.5 8 5.8 12.6 9.6 10.4 8.3 39.7 27.9 48.1 32.1 13.9 7.1 35 17.6 35.4 17.6.3 0 4.4 1.8 9.1 4 4.7 2.2 8.9 4 9.2 4 .3 0 1.9.6 3.6 1.4 7.4 3.1 9.7 4 18.7 6.7 11.7 3.7 32.1 8.9 45.5 11.8 5.5 1.2 12 2.6 14.5 3.1 8.5 1.9 18.7 3.3 35 5.1 12 1.2 13.5 1.8 14.5 5.6 2.7 11 14.7 17.5 26.5 14.3 5.4-1.4 12.5-8.2 13.5-12.9.4-1.7 1.4-3.5 2.4-4 1-.6 7.6-1.7 14.7-2.6 12.4-1.5 15.9-2.1 28.9-4.6 30.2-5.7 63.3-14.9 80-22 1.1-.5 4.5-1.8 7.5-2.9 5-1.9 13.1-5.7 36-16.8 18.7-9.1 43.3-24.8 64.5-41.1 10.8-8.3 22-17.4 24-19.5.6-.6 4.3-4 8.4-7.5 7.3-6.4 7.3-6.4 10.5-5.1 1.7.8 6.4 1.5 10.8 1.5 6.9 0 8-.3 11.9-3 2.4-1.7 5.7-5 7.4-7.4 2.7-3.8 3-5 3-11.9 0-4.3-.6-9.7-1.4-12.2l-1.4-4.6 8.9-12.7c22.2-31.9 38.3-61.1 50-90.7 3.5-9.1 6.9-17.3 7.4-18.2.6-1 1-2.3 1-2.9 0-.6.6-2.5 1.4-4.2 7.7-17.7 18.6-66.2 23.1-103.2.7-6.1 1.6-11.8 2-12.8.4-1 3.1-2.9 6-4.1 5.6-2.5 8.7-6.1 11-12.7 3.9-10.9-.9-22.4-11.2-27.1-5-2.2-5.7-4.2-7.4-18.8-.5-5.2-1.4-11.1-1.9-13-.4-1.9-1.1-6.2-1.5-9.5-.3-3.3-1-7.6-1.5-9.5-.5-1.9-1.6-7.6-2.5-12.5-4.1-21.7-11.5-47.6-19.2-67-10-24.9-16-38.3-23.6-52.1-5.6-10.1-16.8-28.5-22.2-36.4-7.8-11.5-14.6-21.2-16.7-23.9-2.2-2.9-2.3-5.7-.2-9.6 5.3-10.3.6-24.9-10.4-31.7-4.7-2.9-16-3.2-21-.5-4.1 2.2-3.7 2.4-17.7-9.8C707.3 120.2 686.8 105 665 92c-17.8-10.7-33.2-18.5-51-26-6.9-2.8-13.4-5.6-14.5-6-1.1-.5-4.5-1.9-7.5-3-3-1.2-6.4-2.6-7.5-3-8.1-3.4-39.2-11.7-56-15-5.5-1.1-12-2.4-14.5-3-5-1.1-14.7-2.5-29-4.1-13.7-1.5-14-1.6-15.5-5.2-2.2-5.4-5.5-8.7-11.1-11.3-7-3.2-12.6-3.1-19.3.2zm-13.5 24.8c.3.8.2 2.1-.3 2.9-1.6 2.9-23.2 25.6-44.8 47.2-12.1 12.2-33.2 33.7-47 47.8l-25 25.7H236c-39.9 0-73.1-.4-73.8-.9-2.7-1.6-.6-4.8 8.8-13.2 28.2-25.3 69.5-53.7 98-67.1 5.8-2.8 13.7-6.5 17.5-8.3 11-5.2 33.3-13.4 48-17.5 2.2-.6 6.3-1.8 9-2.6 15.1-4.5 38.6-9.5 56.5-11.9 5.8-.8 12.8-1.9 15.5-2.4 7.5-1.3 9.5-1.2 10.1.3zm67.9 1.6c26.3 3.9 41.4 7.1 64.5 13.9 19.2 5.5 35.8 11.2 45.5 15.5 27 12 44.1 21 64.7 33.9 9.8 6.1 18.8 11.9 20 12.9 17.8 14 31.4 25.2 36.3 29.7 3.3 3.1 7.5 6.7 9.3 8 3.9 2.7 4.2 5.8.6 7.1-1.5.6-29.7 1-73.2 1h-70.7l-58.8-58.8c-32.4-32.3-59.3-59.8-59.8-61.2-1.3-3.2 1-5 5.4-4.4 1.8.3 9.1 1.3 16.2 2.4zm-54.4 11.2c2.2 1.3 4.2 3.2 4.5 4.3.2 1.1.3 13.2.2 27l-.3 25-3.1 1.5c-8.2 4.2-12.4 10.3-12.4 18.1 0 7.5-1.1 9.2-8.2 12.5-9.2 4.2-38.5 19.2-41.6 21.2-2.3 1.5-5.3 1.7-27.2 1.4-19.3-.3-24.8-.7-25.9-1.8-1.3-1.2 2.5-5.4 28.1-31.1 16.3-16.4 40.8-41.2 54.4-55.1C421.3 62.4 433 51 433.8 51c.7 0 3.1 1 5.3 2.2zm75.7 48c27.2 27.1 51.8 51.7 54.8 54.7 8 8.1 8.1 8.1-22.8 8.1h-26l-8.2-4.9c-4.4-2.6-13.7-7.6-20.6-11.1-18.6-9.4-20-10.4-20-14.4 0-9-5.5-18.4-12.7-21.8-2.4-1.1-4.8-2.9-5.4-3.9-1.3-2.4-1.1-46 .2-49.8 1-2.8 5.6-5.7 9.4-6 1.3-.1 17.4 15.3 51.3 49.1zM434 148.5c1.9 1.4 3.9 2.5 4.4 2.5.6.1 2.2 1 3.6 2.1 2.3 2 2.4 2.6 2.3 11.1-.2 5.4-.7 9.6-1.5 10.5-1.3 1.6-3.1 1.5-21.3-1.3-33.7-5.2-33.8-5.4-11.6-17 7.8-4.1 15.2-8.1 16.4-8.9 2.9-2 3.8-1.9 7.7 1zm38.5.1c1.7.9 8.6 4.6 15.5 8.1 6.9 3.6 13.1 7.1 13.9 7.8 2.8 2.7.5 4.2-9.6 6-15.1 2.6-31.6 5.6-33.9 6.1-4.1 1-5.4-1.9-5.4-11.6 0-8.9 1.1-12 4.3-12 .7 0 3-1.4 5.1-3 4.5-3.4 5.9-3.6 10.1-1.4zM294.8 173c.8 0 1.2.8 1 2-.3 2-55.6 59.3-58.9 61.1-1.4.7-3.1.3-6.9-1.7-4.5-2.3-5.8-2.6-10.8-2-3.1.4-6.1 1.1-6.6 1.6-.6.6-2.2 1-3.7 1-2.2 0-7.2-4.4-26.3-23.3-13-12.9-23.6-24-23.6-24.8 0-2.1 3.2-10.2 4.8-12.1 1.9-2.3 9.9-2.5 77.2-2.1 28.9.2 53.1.3 53.8.3zm60.2 1c0 1.7-6.5 7-8.6 7-.3 0-4.3 2.2-8.8 4.9-4.4 2.7-12.6 7.3-18.1 10.2-5.5 2.9-11.7 6.3-13.7 7.6-2.1 1.2-4 2.3-4.3 2.3-.2 0-3.4 1.8-7 4s-6.7 4-6.9 4c-.2 0-5.4 2.9-11.7 6.5-6.2 3.6-11.7 6.5-12.1 6.5-.5 0-1.1-.7-1.5-1.6-.4-1.1 5.1-7.3 19-21.2 10.8-10.9 21.7-22 24.4-24.8 2.6-2.8 5.7-5.6 6.8-6.2 1.3-.7 9-1.1 22.3-1.2 19.5 0 20.2.1 20.2 2zm212.5-1h18.1l24.9 25c13.7 13.7 25.3 25.6 25.7 26.5 1.4 2.4-2.1 3.1-5.6 1.1-1.7-1-4.4-2.5-6.1-3.4-1.6-.9-7.8-4.5-13.8-7.9-5.9-3.5-11-6.3-11.2-6.3-.3 0-2.2-1.1-4.3-2.3-2-1.3-8.4-4.9-14.2-7.9-5.8-3-12.3-6.5-14.5-7.8-2.2-1.2-6.5-3.6-9.5-5.2-11.6-6.3-14-8-14-9.8 0-2.1 1.7-3.1 4.5-2.5 1.1.3 10.1.5 20 .5zm165.1.4c2.1 1.5 4.9 10.7 4.3 13.9-.2.9-10.7 12-23.3 24.7-18.2 18.2-23.5 23-25.6 23-1.4 0-3-.4-3.6-1-.5-.5-3.8-1.3-7.1-1.6-5.2-.6-6.7-.3-9.8 1.5-2 1.1-4.6 2.1-5.9 2.1-1.7 0-7.6-5.5-21.8-20.3-34-35.3-37.3-38.9-37.3-40.6 0-2.3 8.7-2.7 73-2.9 46.4-.2 55.4 0 57.1 1.2zm-345.6 2c3 .8 10.7 2.4 17 3.5 6.3 1.2 14 2.6 17 3.2 3 .6 6.5 1.3 7.8 1.5 5.2 1 1.2 3.9-21.3 15.4-43.5 22.1-47 23.9-59 29.8-6.6 3.3-19 9.5-27.5 13.9-8.5 4.5-22.2 11.5-30.5 15.8-8.2 4.2-21.5 11.1-29.5 15.2-8 4.2-18.8 9.8-24.1 12.4l-9.6 4.9-.6 9.8c-.4 5.3-.7 18.1-.7 28.4 0 20.9 0 20.9 6.6 16.9l3.1-1.9v-21.9c0-12 .3-22.7.6-23.9.5-1.3 4-3.7 10-6.7 5-2.5 13-6.7 17.7-9.3 9.2-5.1 28.6-15 96.5-49.4 24.2-12.2 48.5-24.5 54-27.3 5.5-2.8 12.9-6.8 16.4-9 8.4-5 10.7-5.9 11.9-4.4 1.5 1.8 2 525.3.5 526.8-1.1 1.1-12.5-4.1-28.8-13.1-2.7-1.5-16.5-8.6-30.5-15.8-14-7.1-30.9-15.8-37.5-19.2-6.6-3.4-23-11.8-36.4-18.7-13.4-6.8-25.1-12.8-26-13.3-.9-.5-2.9-1.5-4.6-2.3-1.6-.8-7.5-3.8-13-6.7-5.5-2.9-13.8-7.2-18.4-9.6-13.3-6.9-12.1-3.5-12.1-34.5v-26.8l-3.2-3.1c-6.4-5.9-6.3-6.1-6 30 .3 28.7.6 32.7 2 34.1 1.5 1.5 9.6 5.7 55.2 29.2 7.4 3.8 19.6 10.1 27 14 7.4 3.8 23 11.8 34.5 17.7 11.6 5.9 34.1 17.4 50 25.5 16 8.1 30.7 15.6 32.7 16.7 2.4 1.1 3.5 2.3 3.2 3.2-.6 1.6-2.6 2.2-13.9 4.1-4.4.8-12.3 2.3-17.5 3.4-5.2 1-12.5 2.5-16.2 3.2l-6.7 1.2-12.3-7.3c-6.8-4.1-14.8-8.7-17.8-10.4-10.9-5.8-13.7-7.4-26.3-14.7-12-6.9-18.9-10.6-37.7-20.4-4.1-2.2-10.2-5.6-13.5-7.5-3.3-2-10.6-6.1-16.2-9-5.7-3-10.3-5.9-10.4-6.4 0-.6-.1-4.3-.3-8.1-.5-13-6.8-19.6-20.8-22-4-.6-5.5-2.4-6.9-8-.8-3.6-9.5-28.2-10.9-31-.5-1.1-1.9-4.5-3-7.5s-2.5-6.4-3-7.5c-.9-2-6-14.8-8.5-21.5-4.2-11.3-12.3-31.4-15.5-38.5-3.1-6.9-5-11.6-6.3-15.5-1.6-4.6-2.7-7.3-9.6-24.8-2.3-5.6-4.1-10.9-4.1-11.7 0-.8 1-2.6 2.3-4.1l2.4-2.7 26.9-.4c14.8-.2 27.5-.6 28.2-.8.8-.3 1.2-1.7 1-3.7l-.3-3.3-27.7-.3-27.7-.2-2-2.8c-3-4.2-3.5-7.7-1.7-10.9 2-3.5 23.9-57.9 40.3-100.3 5.1-13 10-25.5 11.2-28.5 2.2-5.4 3.2-8 5.7-15.2 4.3-12.7 4.8-13.3 9.7-13.3 6.6 0 13.9-4.5 18-11 1.7-2.7 2.3-5.6 2.7-12.4l.5-8.8 9-4.8c11.5-6 25.7-13.6 31.5-16.8 2.5-1.3 9.2-5 15-8 5.8-3 12.2-6.6 14.2-7.9 2.1-1.3 4-2.3 4.2-2.3.7 0 20.9-11.7 39.5-22.9 7.9-4.7 15.3-9.2 16.5-9.8 2.8-1.7 6.9-1.6 13.6.1zm137.1 1c2.5 1.4 6.8 3.7 9.5 5.3 2.7 1.5 7.3 4.2 10.2 5.8 3 1.7 9.5 5.4 14.5 8.4 5.1 3 12.8 7.3 17.2 9.6 21.9 11.6 37.5 20.1 42.5 22.9 3 1.8 8.4 4.7 12 6.6 3.6 1.8 10.2 5.3 14.8 7.7l8.2 4.5v7.8c0 9.2.7 11.5 5.1 16.4 3.9 4.6 9.8 7.6 16.4 8.4l4.9.7 7.2 18.5c8 21 7.3 19.1 12.9 33 2.4 5.8 5.2 13 6.4 16 4.3 11.4 14.2 36.6 15.1 38.5 1.6 3.5 10.6 25.7 14 34.5 1.8 4.7 4.1 10.5 5.2 12.9 1.8 4 1.8 4.9.7 8.4-.7 2.2-2.1 5-3.2 6.3l-1.8 2.4H627.5c-89.5 0-108.4-.2-109.4-1.3-.8-1-1.2-27.3-1.3-92.7l-.3-91.3-4.5-3.2c-7.4-5.2-31.9-20.5-32.8-20.5-1 0-2 47.1-1.8 78 .1 11.3.3 93.7.4 183.2.2 156 .3 162.8 2 162.8 1 0 2.2-.4 2.8-.9.5-.5 6.8-3.9 13.9-7.5 7.2-3.6 16.2-8.3 20-10.4 8.9-4.8 25.9-13.9 39.5-21 5.8-3 12.1-6.5 14-7.7 3.4-2.2 10-5.8 25-13.8 8-4.3 32.9-18 39.5-21.7 5.3-3.1 15.9-8.7 21.8-11.7l4.7-2.4v-37c0-20.3-.2-36.9-.5-36.9-.9 0-34.8 20.1-36.7 21.8-1.6 1.3-1.8 3.4-1.8 15.2 0 9.8-.4 14-1.2 14.7-.7.6-8.9 4.9-18.3 9.8-20.2 10.4-27.9 14.6-36.3 19.7-3.4 2.1-11.1 6.3-17 9.3-12.3 6.3-24.8 13.1-27.6 15.1-1.2.8-2.5 1-3.5.4-1.5-.8-1.6-7-1.4-70.1.2-46.7.6-69.6 1.4-70.4 1.4-1.4 215.4-1.9 219-.5 1.4.6 3.3 2.6 4.2 4.5 1.5 3.1 1.5 3.9.2 7.6-2.8 7.8-16.7 42.4-19.6 48.7-1.6 3.4-2.9 6.7-2.9 7.2 0 .6-.4 1.8-1 2.8-.9 1.7-3.9 9.1-10.5 26.2-5.2 13.4-9.4 24.2-10.5 26.5-1.7 3.5-5.7 14.6-11 30.5-2.9 8.7-6 16.2-7 17.1-1.1.9-4.1 2-6.7 2.4-5.1.7-8.1 2.2-12.6 6.4-4.7 4.3-6.1 8-6.7 17.1l-.5 8.5-4 2.1c-2.2 1.2-6.7 3.6-10 5.4-11.1 6.1-30.9 16.7-39.5 21-4.7 2.4-8.7 4.7-9 5-.3.4-1.8 1.3-3.5 2.1-1.6.9-5.5 2.9-8.5 4.6-3 1.7-8.6 4.7-12.5 6.8-18 9.7-25 13.6-35.4 19.8-8.2 4.9-8.4 5-15 4.4-6-.5-14.3-1.9-28.9-4.8-2.9-.6-8-1.4-11.3-1.9-6.1-.9-8.9-2.3-8.9-4.4.1-.6 4.9-3.5 10.8-6.4 5.9-2.9 11.4-5.7 12.2-6.2.8-.5 12.8-6.5 26.5-13.3 25.1-12.4 50.6-25.4 84-42.8 9.9-5.1 29.7-15.2 44-22.4l26-13.1.5-13.5c.3-7.4.2-13.8-.1-14.2-.9-1.2-7.9 3.3-8 5.1 0 1 0 3.9.1 6.6.3 7.8-1.1 9.7-10.3 14.4-4.5 2.2-20.6 10.5-35.7 18.2-31.4 16.2-77.7 39.8-112 57.2-12.9 6.6-29 14.9-35.8 18.5-6.8 3.5-12.9 6.2-13.7 5.9-1.2-.4-1.4-38.7-1.5-263.5 0-254.7 0-263 1.8-264 1.4-.7 2.7-.5 5.1 1 5.2 3.2 18.7 10.3 44.6 23.4 13.2 6.7 31.4 16 40.5 20.7 9.1 4.7 26.9 13.8 39.5 20.3 23 11.8 38.8 20 50 26.2 3.3 1.8 10.3 5.5 15.6 8.3 5.3 2.7 10 5.7 10.4 6.7.5 1 1 13.3 1.1 27.3l.3 25.5 3.3 2.7c1.8 1.5 3.7 2.6 4.2 2.5.9-.3.9-63.4 0-64.9-.3-.5-4.9-3-10.2-5.7-5.3-2.6-18.9-9.7-30.2-15.6s-27.7-14.5-36.5-19-17.8-9.3-20-10.5c-2.2-1.3-15.7-8.3-30-15.5-28.5-14.5-62-31.7-70.2-36.1-2.9-1.6-5.3-3.4-5.3-4.1 0-.7 1.7-1.5 3.8-1.8 2-.4 6.9-1.3 10.7-2 3.9-.8 8.4-1.6 10-1.9 5.4-1.1 18.9-3.8 22.5-4.6 5.3-1.2 5.2-1.2 10.1 1.4zm-348.3 41.4c13.3 13.1 24.2 24.6 24.2 25.5 0 .9-.7 4.2-1.5 7.4-1.6 6-1.2 10.8 1.1 15.5 3 5.8 2.3 7-13.8 23.2-36.2 36.1-44.8 44.1-46.4 43.1-1.3-.9-1.6-8.9-2.1-65.8-.5-73.3-1-68.4 7.4-71 2.7-.8 5.3-1.5 5.9-1.6.5-.1 11.9 10.6 25.2 23.7zm580.1-21.5c2.5 1.2 2.6 1.7 3.3 11.7.5 5.8.7 36.1.5 67.5-.2 54.8-.3 57-2.1 57.3-1.3.3-10-7.8-31.2-29-16.2-16.1-29.7-30.1-30-31.1-.3-.9.4-4.2 1.5-7.2 2.3-6.1 2.7-13.5 1-16.6-2.8-5.3-2.1-6.3 22.3-31.2l23.3-23.8 4.4.5c2.3.3 5.5 1.2 7 1.9zm20.8 7.4c2.7 3.8 7 10.2 9.7 14.3 2.7 4.1 6.3 9.7 8.1 12.5 10.1 15.3 18.9 31.9 33.3 62.5 5.6 11.9 16.3 44.5 20.8 63.5 5.8 24.4 8 35.4 10.4 52.1 2.5 17.6 2.4 23.7-.3 24.2-1.3.3-14.6-12.3-45.5-43.3l-43.7-43.6-.5-72.7c-.3-40-.1-73.5.3-74.5.4-.9 1.1-1.7 1.6-1.7s3.1 3 5.8 6.7zM128.8 272l.2 73.5-44.3 44.3c-44.1 44.1-46.4 46.1-48.1 41.7-1.2-3.3 4.8-41.9 9.8-63 2.8-11.4 3.7-15 7.1-26.5 6-20.5 11.6-37 15.4-45.5 14.9-32.9 25.3-51.8 45.7-83 10-15.1 10.4-15.7 12.2-15.3 1.6.3 1.7 6.2 2 73.8zm597.7 44.7c18.4 18.5 33.6 34.4 33.6 35.3.1.8.1 18.4 0 39-.2 30.5-.5 37.9-1.7 39.7-1.6 2.5-5.1 3-7.6 1-1.3-1-17.1-36.8-22.3-50.7-1.9-5-7.1-18.4-8.4-21.5-.5-1.1-1.7-4-2.7-6.5-2.2-5.6-5.2-12.9-6.4-15.5-.5-1.1-3.9-9.7-7.5-19-3.7-9.4-7-17.9-7.6-19-1.1-2.5-5.9-15.4-5.9-16 0-2.8 7.9 4.4 36.5 33.2zM206 286c0 1.1-.4 2.8-1 3.8-.8 1.6-2.4 5.7-11.2 28.7-1.6 4.4-3.4 8.9-3.9 10-.4 1.1-3.1 7.6-5.9 14.5-2.9 6.9-5.7 13.8-6.5 15.5-.7 1.6-2.9 7.3-4.8 12.5-3.2 8.6-10.4 26.4-12.7 31.5-2 4.4-10.8 26.1-11.4 28.2-.4 1.2-1.5 2.5-2.6 2.8-2.7.9-6.9-.5-8-2.5-.6-1.1-1-17.5-1-41v-39.1l33.3-33.4c18.3-18.4 33.8-33.5 34.5-33.5.6 0 1.2.9 1.2 2zm-77 110.4c0 17.6-.3 33.1-.6 34.3-.3 1.2-1.6 2.5-2.8 2.9-3.5 1-8.6 6.6-10.8 11.7-1.3 3-2.8 4.9-4.2 5.2-1.1.3-14.7.4-30.1.3l-28-.3-2.2-4.4c-1.2-2.4-1.9-5-1.5-5.7.4-.6 17.9-18.6 38.9-39.9 32.6-33.1 38.5-38.6 39.8-37.5 1.3 1.1 1.5 5.8 1.5 33.4zm682.1 4.5c21.4 21.3 38.9 39 38.9 39.3 0 1.6-2.5 7.6-3.8 9-1.4 1.6-4.2 1.8-31.7 1.8-32.8 0-32.2.1-33.9-5.7-.4-1.2-3.1-4.8-6.1-8l-5.5-5.8v-33.2c0-18.2.3-33.8.6-34.7.3-.9 1.1-1.6 1.6-1.6.6 0 18.5 17.5 39.9 38.9zm-697.7 60.2c1.4 1.1 2.6 2.5 2.6 3.1 0 2 6.9 9.6 9.4 10.2 1.3.3 2.6 1.6 3 2.8.3 1.3.6 17.9.6 37 0 25.4-.3 34.9-1.2 35.4-.7.5-15.1-13.5-38.5-37.2-20.5-20.8-38.5-39.3-39.9-41.1l-2.5-3.1 2.5-4c1.4-2.2 3.1-4.2 3.8-4.5.7-.3 14-.6 29.4-.6 27-.1 28.2 0 30.8 2zm734.7 2.7c.9 1.8 1.4 4.2 1.1 5.4-.3 1.2-13.6 15.4-29.6 31.7-16.1 16.3-33.2 33.9-38.1 39.2-8.9 9.6-11.7 11.4-12.9 8.3-1.1-2.9-.7-68.1.5-70.6.6-1.3 2.5-3.2 4.2-4.3 1.8-1.1 4.9-4.5 6.9-7.5l3.6-5.5 13.4-.5c7.3-.3 21.4-.3 31.3 0l18 .5 1.6 3.3zm-701.3 12.4c.6.7 2.2 4.4 3.6 8.3 1.5 3.8 3 7.9 3.6 9 5.1 11.1 12.2 28.1 18.1 43.8 6.4 17 9.1 23.9 14.9 37.2 1.6 3.6 8.2 20.8 10.7 28 1.4 3.8 3.1 8.3 3.8 10 6 13.7 6.7 16.5 4.2 16.5-.8 0-7-5.7-13.8-12.7-6.8-7-21.6-22.1-32.9-33.5-11.2-11.5-20.7-21.3-21-21.9-.4-.5-.5-19.3-.4-41.6.3-36.2.6-40.8 2-42.5 2-2.1 5.7-2.4 7.2-.6zm610 .4 2.2 1.5v41.7c0 22.9-.4 42.3-.8 42.9-2.4 3.8-67.6 68.3-68.3 67.6-.5-.5 0-3.1 1-5.8 7.6-19.8 24-61.4 26.1-66 3.5-7.7 5-11.5 5-12.5 0-.5.4-1.8.9-2.8.5-.9 1.6-3.5 2.4-5.7 3.5-9.7 6.2-16.4 8.3-21 1.3-2.8 4.6-10.6 7.4-17.5 2.8-6.9 5.8-13.9 6.6-15.7.8-1.7 1.4-3.4 1.4-3.9 0-1.2 3.2-4.4 4.4-4.4.6 0 2.2.7 3.4 1.6zm-711.1 4.6c2.1 2.4 21.7 22.3 43.5 44.3l39.8 40 .2 63c.1 34.6.3 67 .3 72 .4 19.2-1 19.2-13.5.1-14.9-22.6-22.2-34.9-30.3-51.1C71 620.2 65.4 606.9 59.4 587c-1.9-6.3-4.1-13.5-4.9-16-.7-2.5-2.7-9.7-4.3-16-2.7-10.5-3.7-15-7.7-34-3.4-16.1-6.1-38.7-5-42 1-3.2 4.1-2.4 8.2 2.2zm814.7-2.4c.6 1.7.2 5.6-2.8 26.2-2 13.7-3.7 22.4-8.9 44.5-2.3 10-8.7 32.3-12.7 44.5-4.1 12.4-5.8 16.5-14.7 36-1.4 3-3.2 7.1-4.1 9-5.1 11.1-23.3 42.8-33.3 57.6-2.9 4.4-6.9 10.3-8.8 13.1-6.9 10.4-6.6 13.7-6.9-67.8-.1-48.8.2-73.7.9-75 .9-1.8 15.6-16.9 58.4-60.4 8.3-8.4 18-18.5 21.7-22.4 6.7-7.2 10.1-8.8 11.2-5.3zM171.5 608.2c20.5 20.3 29.5 29.9 29.5 31.4 0 1.2-.9 4.1-2 6.5-2.3 5.2-2.5 12.7-.5 18.4l1.4 3.9-24.3 24.3c-21.2 21.2-24.7 24.3-27.4 24.3-3.7 0-8.4-1.7-9.4-3.3-.4-.7-.8-31.2-.8-68 0-66.4 0-66.7 2-66.7 1.4 0 12.3 10.2 31.5 29.2zM759.3 645c.3 35.7.2 66.1-.2 67.6-.6 2.3-1.6 3-5.7 4.1-2.7.7-5.7 1.3-6.6 1.3-1.7 0-45.1-42.5-48.2-47.2-1.6-2.5-1.6-3 0-8.3 1.8-6.5 1.5-10.3-1.5-16.6-1.2-2.3-2.1-4.8-2.1-5.3 0-.6 13.7-14.7 30.4-31.4 20.4-20.4 30.8-30.1 31.8-29.7 1.3.5 1.6 9.4 2.1 65.5zM211 676.5c3.4 2 16.8 1.9 19.4 0 4.2-3.2 5.6-2.1 28.2 21.2 12 12.6 25.2 25.9 29.2 29.7 4.9 4.8 7.2 7.7 7.2 9.3v2.3l-65.7-.2-65.7-.3-2.3-6.5c-1.3-3.6-2.2-7.3-2-8.2.2-2.1 46.4-48.8 48.1-48.8.6.1 2.2.7 3.6 1.5zm455.5 1.5c5.4 2.3 12.3 2.5 18 .5 2.2-.8 4.5-1.5 5.2-1.5 1.4 0 45.4 43.5 47 46.5.8 1.4.8 2.6-.2 4.5-.7 1.4-1.6 3.9-1.9 5.7-.4 1.7-1.3 3.6-2 4.2-.9.8-20.7 1-65.2.9-61.2-.3-63.9-.4-64.2-2.1-.4-1.9 0-2.4 33.8-37.2 14.4-14.8 23.4-23.5 24.5-23.5.2 0 2.4.9 5 2zM269 687.5c3.2 1.9 6 3.5 6.4 3.5.3 0 2.5 1.3 4.8 3 2.2 1.6 4.5 3 5 3 .6 0 2.2.8 3.6 1.9 1.5 1 6.8 4 11.7 6.7 5 2.6 13.3 7.2 18.5 10.2 12.2 7 15.5 8.8 26.9 14.7 9 4.7 11.5 7 9.3 8.4-.5.3-10.3.6-21.6.6l-20.6-.1-22.2-22.1c-12.3-12.2-24.2-23.9-26.5-26.1-4.4-4-5.6-7.2-2.7-7.2.9 0 4.2 1.6 7.4 3.5zm366-.6c0 1.6-4.1 6.1-26.7 29.1l-22.6 23h-20.8c-11.4 0-21-.4-21.3-.9-1.1-1.8 3.1-5 14.5-11 6.4-3.3 14-7.4 16.8-9.1 2.9-1.6 5.4-3 5.6-3 .2 0 2.7-1.3 5.4-2.9 2.8-1.7 9.6-5.4 15.3-8.2 5.7-2.9 15-8.1 20.8-11.6 10.1-6.1 13-7.3 13-5.4zM443.1 736c1.6.9 1.9 2.2 1.9 9 0 4.3-.3 8.5-.6 9.4-.3.8-2.8 2.9-5.5 4.7-2.7 1.7-4.9 3.4-4.9 3.8 0 .4-1.1 1.3-2.4 2.1-2.1 1.1-2.9 1-5.8-.7-1.8-1.1-6.9-4-11.3-6.3-4.4-2.4-10.6-5.7-13.8-7.4-9.3-4.9-7.1-6.8 11.8-10.1 7.5-1.3 24.5-4.6 28.3-5.4.2-.1 1.2.4 2.3.9zm26.2 1.4c3.4.8 11.2 2.4 17.2 3.5 11.6 2.1 15.9 3.3 16.9 5 .4.5-4.6 3.7-10.9 7.1-6.3 3.4-13.8 7.7-16.6 9.6-6.1 4.1-7.3 4.2-10.3.9-1.2-1.3-4.6-3.6-7.4-5l-5.2-2.6v-8.4c0-4.6.3-9 .6-9.9.8-2.1 7.3-2.1 15.7-.2zm-152 19.8c5.1 5.1 15.3 15.6 22.7 23.3 7.3 7.7 30 30.7 50.4 51.2 33 33.2 36.8 37.3 35.6 38.8-1.6 1.9-6 1.7-24.5-1.1-34.1-5.1-46.3-8-75.5-17.7-30.3-10.1-39.6-14-65-27.4-16.3-8.6-21.5-11.8-40.5-24.2-11.8-7.6-34.1-24.5-38.5-29.1-.3-.3-4.1-3.5-8.5-7.2-11.6-9.6-12.9-11.1-11.6-13.7l1.2-2.1h145l9.2 9.2zm63.5-6.9c3.6 2.3 31.9 17.2 39.7 21 6.4 3.1 7.5 4.5 7.5 9.5 0 6.4 3.3 12.8 8.4 16 9.1 5.8 8.6 4.4 8.5 23.6-.1 9.4-.4 21.7-.8 27.2-.5 9.2-.8 10.4-3.1 12.3-5.5 4.6-3.7 6.1-61.6-52.4-29.6-30-54.1-55-54.2-55.6-.2-.5-.1-1.6.2-2.4.4-1.3 4.6-1.5 26.1-1.5 25 0 25.6.1 29.3 2.3zm193.2-.6c0 .9-15 16.8-33.2 35.2-18.3 18.5-40 40.5-48.3 49-22.2 22.9-27.8 28-30 28-1.1 0-3.5-1.2-5.4-2.8l-3.4-2.8-.4-26.6-.3-26.5 2.4-1.9c1.4-1 4.2-2.8 6.3-4.1 5.8-3.5 8.6-8.2 9.2-15.9l.6-6.6 12-6.2c14.9-7.6 34.7-18.4 36-19.6.5-.5 13-.9 27.7-.9 24.5 0 26.8.1 26.8 1.7zm160-.1c2 2.3.3 5.4-5.5 10.5-14 12.2-17.7 15.3-26 21.9-8.5 6.6-34.1 24.1-44.9 30.6-17.9 10.7-46.2 24.8-60.1 29.9-25.2 9.4-50.8 17.4-67 21-3.8.9-8.8 2-11 2.5-7.5 1.7-37.5 6-41.9 6-9.7 0-9.6-.1 28.1-38.2 19.2-19.4 41.9-42.5 50.3-51.3 8.5-8.8 19.7-20.2 24.8-25.3l9.4-9.2h71.3c63.3 0 71.4.2 72.5 1.6z"/>
  <path d="M407 248.2c-4.1 3.3-11.3 9.3-16 13.2-4.7 3.9-13 10.7-18.5 15.1-11.7 9.4-14.4 11.6-20.5 17.1-2.5 2.2-6.7 5.8-9.5 8-2.7 2.1-9 7.3-14 11.5-4.9 4.2-14 11.6-20.1 16.5-6.1 4.9-13.5 11-16.5 13.6-5.5 4.8-21.6 17.9-37.1 30.3l-8.8 7v72.2c0 39.7.3 72.9.6 73.8.4.9 7.7 6.3 16.3 12 16 10.6 20.7 13.2 21.6 12.3.3-.3.6-17.4.5-38 0-29.8.3-37.8 1.3-39.3 1.3-1.7 3.7-1.8 45.7-1.6 24.4.1 44.7.4 45.2.7.4.3.8 37.5.8 82.8v82.3l2.3 2c3.3 3.1 35.8 26.3 36.8 26.3.5 0 .8-95.4.8-212 0-199.4-.1-212-1.7-212-.9.1-5.1 2.8-9.2 6.2zm-29.1 77.6c1.5 2.9 1.3 103.5-.2 105.6-1.1 1.6-5.2 1.7-45.5 1.9-27.5.1-44.5-.2-45.1-.8-.5-.6-1.1-8.3-1.2-17.3l-.3-16.3 3.9-3.8c2.2-2 6.2-5.4 9-7.6 2.7-2.2 9.5-7.8 15.1-12.5 9.9-8.4 14.9-12.4 35.3-29.1 5.6-4.6 13.9-11.4 18.2-15.2 4.4-3.7 8.4-6.7 8.9-6.7s1.4.8 1.9 1.8z"/>
</svg>