<?xml version="1.0" standalone="no"?>
<!DOCTYPE svg PUBLIC "-//W3C//DTD SVG 20010904//EN"
 "http://www.w3.org/TR/2001/REC-SVG-20010904/DTD/svg10.dtd">
<svg version="1.0" xmlns="http://www.w3.org/2000/svg"
 width="900.000000pt" height="903.000000pt" viewBox="0 0 900.000000 903.000000"
 preserveAspectRatio="xMidYMid meet">
<metadata>
Created by potrace 1.10, written by Peter Selinger 2001-2011
</metadata>
<g transform="translate(0.000000,903.000000) scale(0.100000,-0.100000)"
fill="#000000" stroke="none">
<path d="M4391 8874 c-40 -20 -61 -39 -83 -76 -36 -58 -54 -67 -173 -79 -104
-11 -189 -25 -435 -75 -233 -47 -624 -157 -655 -185 -5 -5 -15 -9 -22 -9 -7 0
-41 -13 -75 -28 -35 -16 -121 -55 -193 -87 -128 -57 -307 -147 -334 -168 -16
-13 -34 -24 -92 -56 -68 -37 -287 -185 -354 -238 -33 -27 -85 -67 -115 -90
-31 -22 -103 -83 -160 -134 -58 -52 -120 -106 -138 -121 l-33 -27 -50 19
c-104 41 -222 9 -281 -75 -51 -75 -59 -186 -18 -263 23 -42 17 -64 -35 -132
-78 -103 -133 -187 -247 -376 -128 -212 -189 -327 -243 -459 -20 -49 -42 -103
-49 -120 -8 -16 -22 -52 -31 -80 -10 -27 -22 -54 -26 -60 -15 -20 -101 -294
-134 -425 -56 -225 -85 -368 -110 -550 -18 -134 -35 -238 -41 -262 -3 -10 -24
-26 -47 -37 -76 -34 -137 -125 -137 -204 0 -77 70 -171 147 -197 39 -14 52
-45 64 -149 30 -283 118 -706 194 -935 34 -104 108 -306 125 -341 5 -11 26
-63 46 -115 37 -96 139 -304 193 -395 17 -27 40 -68 52 -90 40 -73 141 -229
222 -339 l79 -110 -22 -53 c-18 -43 -21 -68 -18 -127 4 -86 30 -134 98 -181
54 -38 151 -46 229 -20 l51 17 33 -28 c17 -15 74 -66 125 -115 51 -48 112
-100 135 -116 23 -15 80 -58 126 -96 104 -83 397 -279 481 -321 139 -71 350
-176 354 -176 3 0 44 -18 91 -40 47 -22 89 -40 92 -40 3 0 19 -6 36 -14 74
-31 97 -40 187 -67 117 -37 321 -89 455 -118 55 -12 120 -26 145 -31 85 -19
187 -33 350 -51 120 -12 135 -18 145 -56 27 -110 147 -175 265 -143 54 14 125
82 135 129 4 17 14 35 24 40 10 6 76 17 147 26 124 15 159 21 289 46 302 57
633 149 800 220 11 5 45 18 75 29 50 19 131 57 360 168 187 91 433 248 645
411 108 83 220 174 240 195 6 6 43 40 84 75 73 64 73 64 105 51 17 -8 64 -15
108 -15 69 0 80 3 119 30 24 17 57 50 74 74 27 38 30 50 30 119 0 43 -6 97
-14 122 l-14 46 89 127 c222 319 383 611 500 907 35 91 69 173 74 182 6 10 10
23 10 29 0 6 6 25 14 42 77 177 186 662 231 1032 7 61 16 118 20 128 4 10 31
29 60 41 56 25 87 61 110 127 39 109 -9 224 -112 271 -50 22 -57 42 -74 188
-5 52 -14 111 -19 130 -4 19 -11 62 -15 95 -3 33 -10 76 -15 95 -5 19 -16 76
-25 125 -41 217 -115 476 -192 670 -100 249 -160 383 -236 521 -56 101 -168
285 -222 364 -78 115 -146 212 -167 239 -22 29 -23 57 -2 96 53 103 6 249
-104 317 -47 29 -160 32 -210 5 -41 -22 -37 -24 -177 98 -232 203 -437 355
-655 485 -178 107 -332 185 -510 260 -69 28 -134 56 -145 60 -11 5 -45 19 -75
30 -30 12 -64 26 -75 30 -81 34 -392 117 -560 150 -55 11 -120 24 -145 30 -50
11 -147 25 -290 41 -137 15 -140 16 -155 52 -22 54 -55 87 -111 113 -70 32
-126 31 -193 -2z m-135 -248 c3 -8 2 -21 -3 -29 -16 -29 -232 -256 -448 -472
-121 -122 -332 -337 -470 -478 l-250 -257 -725 0 c-399 0 -731 4 -738 9 -27
16 -6 48 88 132 282 253 695 537 980 671 58 28 137 65 175 83 110 52 333 134
480 175 22 6 63 18 90 26 151 45 386 95 565 119 58 8 128 19 155 24 75 13 95
12 101 -3z m679 -16 c263 -39 414 -71 645 -139 192 -55 358 -112 455 -155 270
-120 441 -210 647 -339 98 -61 188 -119 200 -129 178 -140 314 -252 363 -297
33 -31 75 -67 93 -80 39 -27 42 -58 6 -71 -15 -6 -297 -10 -732 -10 l-707 0
-588 588 c-324 323 -593 598 -598 612 -13 32 10 50 54 44 18 -3 91 -13 162
-24z m-544 -112 c22 -13 42 -32 45 -43 2 -11 3 -132 2 -270 l-3 -250 -31 -15
c-82 -42 -124 -103 -124 -181 0 -75 -11 -92 -82 -125 -92 -42 -385 -192 -416
-212 -23 -15 -53 -17 -272 -14 -193 3 -248 7 -259 18 -13 12 25 54 281 311
163 164 408 412 544 551 137 138 254 252 262 252 7 0 31 -10 53 -22z m757
-480 c272 -271 518 -517 548 -547 80 -81 81 -81 -228 -81 l-260 0 -82 49 c-44
26 -137 76 -206 111 -186 94 -200 104 -200 144 0 90 -55 184 -127 218 -24 11
-48 29 -54 39 -13 24 -11 460 2 498 10 28 56 57 94 60 13 1 174 -153 513 -491z
m-808 -473 c19 -14 39 -25 44 -25 6 -1 22 -10 36 -21 23 -20 24 -26 23 -111
-2 -54 -7 -96 -15 -105 -13 -16 -31 -15 -213 13 -337 52 -338 54 -116 170 78
41 152 81 164 89 29 20 38 19 77 -10z m385 -1 c17 -9 86 -46 155 -81 69 -36
131 -71 139 -78 28 -27 5 -42 -96 -60 -151 -26 -316 -56 -339 -61 -41 -10 -54
19 -54 116 0 89 11 120 43 120 7 0 30 14 51 30 45 34 59 36 101 14z m-1777
-244 c8 0 12 -8 10 -20 -3 -20 -556 -593 -589 -611 -14 -7 -31 -3 -69 17 -45
23 -58 26 -108 20 -31 -4 -61 -11 -66 -16 -6 -6 -22 -10 -37 -10 -22 0 -72 44
-263 233 -130 129 -236 240 -236 248 0 21 32 102 48 121 19 23 99 25 772 21
289 -2 531 -3 538 -3z m602 -10 c0 -17 -65 -70 -86 -70 -3 0 -43 -22 -88 -49
-44 -27 -126 -73 -181 -102 -55 -29 -117 -63 -137 -76 -21 -12 -40 -23 -43
-23 -2 0 -34 -18 -70 -40 -36 -22 -67 -40 -69 -40 -2 0 -54 -29 -117 -65 -62
-36 -117 -65 -121 -65 -5 0 -11 7 -15 16 -4 11 51 73 190 212 108 109 217 220
244 248 26 28 57 56 68 62 13 7 90 11 223 12 195 0 202 -1 202 -20z m2125 10
l181 0 249 -250 c137 -137 253 -256 257 -265 14 -24 -21 -31 -56 -11 -17 10
-44 25 -61 34 -16 9 -78 45 -138 79 -59 35 -110 63 -112 63 -3 0 -22 11 -43
23 -20 13 -84 49 -142 79 -58 30 -123 65 -145 78 -22 12 -65 36 -95 52 -116
63 -140 80 -140 98 0 21 17 31 45 25 11 -3 101 -5 200 -5z m1651 -4 c21 -15
49 -107 43 -139 -2 -9 -107 -120 -233 -247 -182 -182 -235 -230 -256 -230 -14
0 -30 4 -36 10 -5 5 -38 13 -71 16 -52 6 -67 3 -98 -15 -20 -11 -46 -21 -59
-21 -17 0 -76 55 -218 203 -340 353 -373 389 -373 406 0 23 87 27 730 29 464
2 554 0 571 -12z m-3456 -20 c30 -8 107 -24 170 -35 63 -12 140 -26 170 -32
30 -6 65 -13 78 -15 52 -10 12 -39 -213 -154 -435 -221 -470 -239 -590 -298
-66 -33 -190 -95 -275 -139 -85 -45 -222 -115 -305 -158 -82 -42 -215 -111
-295 -152 -80 -42 -188 -98 -241 -124 l-96 -49 -6 -98 c-4 -53 -7 -181 -7
-284 0 -209 0 -209 66 -169 l31 19 0 219 c0 120 3 227 6 239 5 13 40 37 100
67 50 25 130 67 177 93 92 51 286 150 965 494 242 122 485 245 540 273 55 28
129 68 164 90 84 50 107 59 119 44 15 -18 20 -5253 5 -5268 -11 -11 -125 41
-288 131 -27 15 -165 86 -305 158 -140 71 -309 158 -375 192 -66 34 -230 118
-364 187 -134 68 -251 128 -260 133 -9 5 -29 15 -46 23 -16 8 -75 38 -130 67
-55 29 -138 72 -184 96 -133 69 -121 35 -121 345 l0 268 -32 31 c-64 59 -63
61 -60 -300 3 -287 6 -327 20 -341 15 -15 96 -57 552 -292 74 -38 196 -101
270 -140 74 -38 230 -118 345 -177 116 -59 341 -174 500 -255 160 -81 307
-156 327 -167 24 -11 35 -23 32 -32 -6 -16 -26 -22 -139 -41 -44 -8 -123 -23
-175 -34 -52 -10 -125 -25 -162 -32 l-67 -12 -123 73 c-68 41 -148 87 -178
104 -109 58 -137 74 -263 147 -120 69 -189 106 -377 204 -41 22 -102 56 -135
75 -33 20 -106 61 -162 90 -57 30 -103 59 -104 64 0 6 -1 43 -3 81 -5 130 -68
196 -208 220 -40 6 -55 24 -69 80 -8 36 -95 282 -109 310 -5 11 -19 45 -30 75
-11 30 -25 64 -30 75 -9 20 -60 148 -85 215 -42 113 -123 314 -155 385 -31 69
-50 116 -63 155 -16 46 -27 73 -96 248 -23 56 -41 109 -41 117 0 8 10 26 23
41 l24 27 269 4 c148 2 275 6 282 8 8 3 12 17 10 37 l-3 33 -277 3 -277 2 -20
28 c-30 42 -35 77 -17 109 20 35 239 579 403 1003 51 130 100 255 112 285 22
54 32 80 57 152 43 127 48 133 97 133 66 0 139 45 180 110 17 27 23 56 27 124
l5 88 90 48 c115 60 257 136 315 168 25 13 92 50 150 80 58 30 122 66 142 79
21 13 40 23 42 23 7 0 209 117 395 229 79 47 153 92 165 98 28 17 69 16 136
-1z m1371 -10 c25 -14 68 -37 95 -53 27 -15 73 -42 102 -58 30 -17 95 -54 145
-84 51 -30 128 -73 172 -96 219 -116 375 -201 425 -229 30 -18 84 -47 120 -66
36 -18 102 -53 148 -77 l82 -45 0 -78 c0 -92 7 -115 51 -164 39 -46 98 -76
164 -84 l49 -7 72 -185 c80 -210 73 -191 129 -330 24 -58 52 -130 64 -160 43
-114 142 -366 151 -385 16 -35 106 -257 140 -345 18 -47 41 -105 52 -129 18
-40 18 -49 7 -84 -7 -22 -21 -50 -32 -63 l-18 -24 -1084 0 c-895 0 -1084 2
-1094 13 -8 10 -12 273 -13 927 l-3 913 -45 32 c-74 52 -319 205 -328 205 -10
0 -20 -471 -18 -780 1 -113 3 -937 4 -1832 2 -1560 3 -1628 20 -1628 10 0 22
4 28 9 5 5 68 39 139 75 72 36 162 83 200 104 89 48 259 139 395 210 58 30
121 65 140 77 34 22 100 58 250 138 80 43 329 180 395 217 53 31 159 87 218
117 l47 24 0 370 c0 203 -2 369 -5 369 -9 0 -348 -201 -367 -218 -16 -13 -18
-34 -18 -152 0 -98 -4 -140 -12 -147 -7 -6 -89 -49 -183 -98 -202 -104 -279
-146 -363 -197 -34 -21 -111 -63 -170 -93 -123 -63 -248 -131 -276 -151 -12
-8 -25 -10 -35 -4 -15 8 -16 70 -14 701 2 467 6 696 14 704 14 14 2154 19
2190 5 14 -6 33 -26 42 -45 15 -31 15 -39 2 -76 -28 -78 -167 -424 -196 -487
-16 -34 -29 -67 -29 -72 0 -6 -4 -18 -10 -28 -9 -17 -39 -91 -105 -262 -52
-134 -94 -242 -105 -265 -17 -35 -57 -146 -110 -305 -29 -87 -60 -162 -70
-171 -11 -9 -41 -20 -67 -24 -51 -7 -81 -22 -126 -64 -47 -43 -61 -80 -67
-171 l-5 -85 -40 -21 c-22 -12 -67 -36 -100 -54 -111 -61 -309 -167 -395 -210
-47 -24 -87 -47 -90 -50 -3 -4 -18 -13 -35 -21 -16 -9 -55 -29 -85 -46 -30
-17 -86 -47 -125 -68 -180 -97 -250 -136 -354 -198 -82 -49 -84 -50 -150 -44
-60 5 -143 19 -289 48 -29 6 -80 14 -113 19 -61 9 -89 23 -89 44 1 6 49 35
108 64 59 29 114 57 122 62 8 5 128 65 265 133 251 124 506 254 840 428 99 51
297 152 440 224 l260 131 5 135 c3 74 2 138 -1 142 -9 12 -79 -33 -80 -51 0
-10 0 -39 1 -66 3 -78 -11 -97 -103 -144 -45 -22 -206 -105 -357 -182 -314
-162 -777 -398 -1120 -572 -129 -66 -290 -149 -358 -185 -68 -35 -129 -62
-137 -59 -12 4 -14 387 -15 2635 0 2547 0 2630 18 2640 14 7 27 5 51 -10 52
-32 187 -103 446 -234 132 -67 314 -160 405 -207 91 -47 269 -138 395 -203
230 -118 388 -200 500 -262 33 -18 103 -55 156 -83 53 -27 100 -57 104 -67 5
-10 10 -133 11 -273 l3 -255 33 -27 c18 -15 37 -26 42 -25 9 3 9 634 0 649 -3
5 -49 30 -102 57 -53 26 -189 97 -302 156 -113 59 -277 145 -365 190 -88 45
-178 93 -200 105 -22 13 -157 83 -300 155 -285 145 -620 317 -702 361 -29 16
-53 34 -53 41 0 7 17 15 38 18 20 4 69 13 107 20 39 8 84 16 100 19 54 11 189
38 225 46 53 12 52 12 101 -14z m-3483 -414 c133 -131 242 -246 242 -255 0 -9
-7 -42 -15 -74 -16 -60 -12 -108 11 -155 30 -58 23 -70 -138 -232 -362 -361
-448 -441 -464 -431 -13 9 -16 89 -21 658 -5 733 -10 684 74 710 27 8 53 15
59 16 5 1 119 -106 252 -237z m5801 215 c25 -12 26 -17 33 -117 5 -58 7 -361
5 -675 -2 -548 -3 -570 -21 -573 -13 -3 -100 78 -312 290 -162 161 -297 301
-300 311 -3 9 4 42 15 72 23 61 27 135 10 166 -28 53 -21 63 223 312 l233 238
44 -5 c23 -3 55 -12 70 -19z m208 -74 c27 -38 70 -102 97 -143 27 -41 63 -97
81 -125 101 -153 189 -319 333 -625 56 -119 163 -445 208 -635 58 -244 80
-354 104 -521 25 -176 24 -237 -3 -242 -13 -3 -146 123 -455 433 l-437 436 -5
727 c-3 400 -1 735 3 745 4 9 11 17 16 17 5 0 31 -30 58 -67z m-6479 -683 l2
-735 -443 -443 c-441 -441 -464 -461 -481 -417 -12 33 48 419 98 630 28 114
37 150 71 265 60 205 116 370 154 455 149 329 253 518 457 830 100 151 104
157 122 153 16 -3 17 -62 20 -738z m5977 -447 c184 -185 336 -344 336 -353 1
-8 1 -184 0 -390 -2 -305 -5 -379 -17 -397 -16 -25 -51 -30 -76 -10 -13 10
-171 368 -223 507 -19 50 -71 184 -84 215 -5 11 -17 40 -27 65 -22 56 -52 129
-64 155 -5 11 -39 97 -75 190 -37 94 -70 179 -76 190 -11 25 -59 154 -59 160
0 28 79 -44 365 -332z m-5205 307 c0 -11 -4 -28 -10 -38 -8 -16 -24 -57 -112
-287 -16 -44 -34 -89 -39 -100 -4 -11 -31 -76 -59 -145 -29 -69 -57 -138 -65
-155 -7 -16 -29 -73 -48 -125 -32 -86 -104 -264 -127 -315 -20 -44 -108 -261
-114 -282 -4 -12 -15 -25 -26 -28 -27 -9 -69 5 -80 25 -6 11 -10 175 -10 410
l0 391 333 334 c183 184 338 335 345 335 6 0 12 -9 12 -20z m-770 -1104 c0
-176 -3 -331 -6 -343 -3 -12 -16 -25 -28 -29 -35 -10 -86 -66 -108 -117 -13
-30 -28 -49 -42 -52 -11 -3 -147 -4 -301 -3 l-280 3 -22 44 c-12 24 -19 50
-15 57 4 6 179 186 389 399 326 331 385 386 398 375 13 -11 15 -58 15 -334z
m6821 -45 c214 -213 389 -390 389 -393 0 -16 -25 -76 -38 -90 -14 -16 -42 -18
-317 -18 -328 0 -322 -1 -339 57 -4 12 -31 48 -61 80 l-55 58 0 332 c0 182 3
338 6 347 3 9 11 16 16 16 6 0 185 -175 399 -389z m-6977 -602 c14 -11 26 -25
26 -31 0 -20 69 -96 94 -102 13 -3 26 -16 30 -28 3 -13 6 -179 6 -370 0 -254
-3 -349 -12 -354 -7 -5 -151 135 -385 372 -205 208 -385 393 -399 411 l-25 31
25 40 c14 22 31 42 38 45 7 3 140 6 294 6 270 1 282 0 308 -20z m7347 -27 c9
-18 14 -42 11 -54 -3 -12 -136 -154 -296 -317 -161 -163 -332 -339 -381 -392
-89 -96 -117 -114 -129 -83 -11 29 -7 681 5 706 6 13 25 32 42 43 18 11 49 45
69 75 l36 55 134 5 c73 3 214 3 313 0 l180 -5 16 -33z m-7013 -124 c6 -7 22
-44 36 -83 15 -38 30 -79 36 -90 51 -111 122 -281 181 -438 64 -170 91 -239
149 -372 16 -36 82 -208 107 -280 14 -38 31 -83 38 -100 60 -137 67 -165 42
-165 -8 0 -70 57 -138 127 -68 70 -216 221 -329 335 -112 115 -207 213 -210
219 -4 5 -5 193 -4 416 3 362 6 408 20 425 20 21 57 24 72 6z m6100 -4 l22
-15 0 -417 c0 -229 -4 -423 -8 -429 -24 -38 -676 -683 -683 -676 -5 5 0 31 10
58 76 198 240 614 261 660 35 77 50 115 50 125 0 5 4 18 9 28 5 9 16 35 24 57
35 97 62 164 83 210 13 28 46 106 74 175 28 69 58 139 66 157 8 17 14 34 14
39 0 12 32 44 44 44 6 0 22 -7 34 -16z m-7111 -46 c21 -24 217 -223 435 -443
l398 -400 2 -630 c1 -346 3 -670 3 -720 4 -192 -10 -192 -135 -1 -149 226
-222 349 -303 511 -147 293 -203 426 -263 625 -19 63 -41 135 -49 160 -7 25
-27 97 -43 160 -27 105 -37 150 -77 340 -34 161 -61 387 -50 420 10 32 41 24
82 -22z m8147 24 c6 -17 2 -56 -28 -262 -20 -137 -37 -224 -89 -445 -23 -100
-87 -323 -127 -445 -41 -124 -58 -165 -147 -360 -14 -30 -32 -71 -41 -90 -51
-111 -233 -428 -333 -576 -29 -44 -69 -103 -88 -131 -69 -104 -66 -137 -69
678 -1 488 2 737 9 750 9 18 156 169 584 604 83 84 180 185 217 224 67 72 101
88 112 53z m-6889 -1294 c205 -203 295 -299 295 -314 0 -12 -9 -41 -20 -65
-23 -52 -25 -127 -5 -184 l14 -39 -243 -243 c-212 -212 -247 -243 -274 -243
-37 0 -84 17 -94 33 -4 7 -8 312 -8 680 0 664 0 667 20 667 14 0 123 -102 315
-292z m5878 -368 c3 -357 2 -661 -2 -676 -6 -23 -16 -30 -57 -41 -27 -7 -57
-13 -66 -13 -17 0 -451 425 -482 472 -16 25 -16 30 0 83 18 65 15 103 -15 166
-12 23 -21 48 -21 53 0 6 137 147 304 314 204 204 308 301 318 297 13 -5 16
-94 21 -655z m-5483 -315 c34 -20 168 -19 194 0 42 32 56 21 282 -212 120
-126 252 -259 292 -297 49 -48 72 -77 72 -93 l0 -23 -657 2 -657 3 -23 65
c-13 36 -22 73 -20 82 2 21 464 488 481 488 6 -1 22 -7 36 -15z m4555 -15 c54
-23 123 -25 180 -5 22 8 45 15 52 15 14 0 454 -435 470 -465 8 -14 8 -26 -2
-45 -7 -14 -16 -39 -19 -57 -4 -17 -13 -36 -20 -42 -9 -8 -207 -10 -652 -9
-612 3 -639 4 -642 21 -4 19 0 24 338 372 144 148 234 235 245 235 2 0 24 -9
50 -20z m-3975 -95 c32 -19 60 -35 64 -35 3 0 25 -13 48 -30 22 -16 45 -30 50
-30 6 0 22 -8 36 -19 15 -10 68 -40 117 -67 50 -26 133 -72 185 -102 122 -70
155 -88 269 -147 90 -47 115 -70 93 -84 -5 -3 -103 -6 -216 -6 l-206 1 -222
221 c-123 122 -242 239 -265 261 -44 40 -56 72 -27 72 9 0 42 -16 74 -35z
m3660 6 c0 -16 -41 -61 -267 -291 l-226 -230 -208 0 c-114 0 -210 4 -213 9
-11 18 31 50 145 110 64 33 140 74 168 91 29 16 54 30 56 30 2 0 27 13 54 29
28 17 96 54 153 82 57 29 150 81 208 116 101 61 130 73 130 54z m-1919 -491
c16 -9 19 -22 19 -90 0 -43 -3 -85 -6 -94 -3 -8 -28 -29 -55 -47 -27 -17 -49
-34 -49 -38 0 -4 -11 -13 -24 -21 -21 -11 -29 -10 -58 7 -18 11 -69 40 -113
63 -44 24 -106 57 -138 74 -93 49 -71 68 118 101 75 13 245 46 283 54 2 1 12
-4 23 -9z m262 -14 c34 -8 112 -24 172 -35 116 -21 159 -33 169 -50 4 -5 -46
-37 -109 -71 -63 -34 -138 -77 -166 -96 -61 -41 -73 -42 -103 -9 -12 13 -46
36 -74 50 l-52 26 0 84 c0 46 3 90 6 99 8 21 73 21 157 2z m-1520 -198 c51
-51 153 -156 227 -233 73 -77 300 -307 504 -512 330 -332 368 -373 356 -388
-16 -19 -60 -17 -245 11 -341 51 -463 80 -755 177 -303 101 -396 140 -650 274
-163 86 -215 118 -405 242 -118 76 -341 245 -385 291 -3 3 -41 35 -85 72 -116
96 -129 111 -116 137 l12 21 725 0 725 0 92 -92z m635 69 c36 -23 319 -172
397 -210 64 -31 75 -45 75 -95 0 -64 33 -128 84 -160 91 -58 86 -44 85 -236
-1 -94 -4 -217 -8 -272 -5 -92 -8 -104 -31 -123 -55 -46 -37 -61 -616 524
-296 300 -541 550 -542 556 -2 5 -1 16 2 24 4 13 46 15 261 15 250 0 256 -1
293 -23z m1932 6 c0 -9 -150 -168 -332 -352 -183 -185 -400 -405 -483 -490
-222 -229 -278 -280 -300 -280 -11 0 -35 12 -54 28 l-34 28 -4 266 -3 265 24
19 c14 10 42 28 63 41 58 35 86 82 92 159 l6 66 120 62 c149 76 347 184 360
196 5 5 130 9 277 9 245 0 268 -1 268 -17z m1600 1 c20 -23 3 -54 -55 -105
-140 -122 -177 -153 -260 -219 -85 -66 -341 -241 -449 -306 -179 -107 -462
-248 -601 -299 -252 -94 -508 -174 -670 -210 -38 -9 -88 -20 -110 -25 -75 -17
-375 -60 -419 -60 -97 0 -96 1 281 382 192 194 419 425 503 513 85 88 197 202
248 253 l94 92 713 0 c633 0 714 -2 725 -16z"/>
<path d="M4070 6548 c-41 -33 -113 -93 -160 -132 -47 -39 -130 -107 -185 -151
-117 -94 -144 -116 -205 -171 -25 -22 -67 -58 -95 -80 -27 -21 -90 -73 -140
-115 -49 -42 -140 -116 -201 -165 -61 -49 -135 -110 -165 -136 -55 -48 -216
-179 -371 -303 l-88 -70 0 -722 c0 -397 3 -729 6 -738 4 -9 77 -63 163 -120
160 -106 207 -132 216 -123 3 3 6 174 5 380 0 298 3 378 13 393 13 17 37 18
457 16 244 -1 447 -4 452 -7 4 -3 8 -375 8 -828 l0 -823 23 -20 c33 -31 358
-263 368 -263 5 0 8 954 8 2120 0 1994 -1 2120 -17 2120 -9 -1 -51 -28 -92
-62z m-291 -776 c15 -29 13 -1035 -2 -1056 -11 -16 -52 -17 -455 -19 -275 -1
-445 2 -451 8 -5 6 -11 83 -12 173 l-3 163 39 38 c22 20 62 54 90 76 27 22 95
78 151 125 99 84 149 124 353 291 56 46 139 114 182 152 44 37 84 67 89 67 5
0 14 -8 19 -18z"/>
</g>
</svg>
